# xmcd CD database file
#
# Track frame offsets:
#	150
#	27050
#	46850
#	62956
#	89282
#	114143
#	135620
#	169009
#	195988
#	221323
#	241315
#	265833
#	284375
#
# Disc length: 4158 seconds
#
# Revision: 0
# Processed by: cddbd v1.5.1PL2 Copyright (c) Steve Scherf et al.
# Submitted via: CDex 1.51
#
DISCID=a9103c0d
DTITLE=sitnlisten - magic day
DYEAR=2006
DGENRE=Rhythmic Soul
TTITLE0=magic day
TTITLE1=field of inspiration
TTITLE2=funky blowjob
TTITLE3=another day
TTITLE4=the night
TTITLE5=embrace your soul
TTITLE6=superwoman
TTITLE7=ocean breeze
TTITLE8=ruido de rosas
TTITLE9=show me love
TTITLE10=ganz nah
TTITLE11=doriana
TTITLE12=try to be lonely
EXTD=YEAR: 2006
EXTT0=
EXTT1=
EXTT2=
EXTT3=
EXTT4=
EXTT5=
EXTT6=
EXTT7=
EXTT8=
EXTT9=
EXTT10=
EXTT11=
EXTT12=
PLAYORDER=
